<mxfile host="app.diagrams.net" modified="2020-10-25T11:06:06.570Z" agent="5.0 (Windows NT 10.0; Win64; x64) AppleWebKit/537.36 (KHTML, like Gecko) Chrome/86.0.4240.111 Safari/537.36" etag="-JZOwbYTgS7GKnRfxJFS" version="13.8.2" type="github">
  <diagram id="VFYkWOyQrFgfCgSsyagO" name="Overview">
    <mxGraphModel dx="774" dy="548" grid="1" gridSize="10" guides="1" tooltips="1" connect="1" arrows="1" fold="1" page="1" pageScale="1" pageWidth="850" pageHeight="1100" math="0" shadow="0">
      <root>
        <mxCell id="0" />
        <mxCell id="1" parent="0" />
        <mxCell id="4uYYf8xD5izp8TEkNXEM-1" value="Siren" style="rounded=0;whiteSpace=wrap;html=1;" vertex="1" parent="1">
          <mxGeometry x="640" y="300" width="120" height="60" as="geometry" />
        </mxCell>
        <mxCell id="4uYYf8xD5izp8TEkNXEM-16" style="edgeStyle=orthogonalEdgeStyle;rounded=0;orthogonalLoop=1;jettySize=auto;html=1;exitX=0.5;exitY=1;exitDx=0;exitDy=0;entryX=0.5;entryY=0;entryDx=0;entryDy=0;startArrow=none;startFill=0;endArrow=classic;endFill=1;" edge="1" parent="1" source="4uYYf8xD5izp8TEkNXEM-2" target="4uYYf8xD5izp8TEkNXEM-3">
          <mxGeometry relative="1" as="geometry" />
        </mxCell>
        <mxCell id="4uYYf8xD5izp8TEkNXEM-2" value="12V Battery" style="rounded=0;whiteSpace=wrap;html=1;" vertex="1" parent="1">
          <mxGeometry x="240" y="280" width="120" height="60" as="geometry" />
        </mxCell>
        <mxCell id="4uYYf8xD5izp8TEkNXEM-4" value="Aux 12V Battery" style="rounded=0;whiteSpace=wrap;html=1;" vertex="1" parent="1">
          <mxGeometry x="40" y="480" width="120" height="60" as="geometry" />
        </mxCell>
        <mxCell id="4uYYf8xD5izp8TEkNXEM-7" value="" style="group" vertex="1" connectable="0" parent="1">
          <mxGeometry x="240" y="380" width="280" height="160" as="geometry" />
        </mxCell>
        <mxCell id="4uYYf8xD5izp8TEkNXEM-5" value="" style="rounded=0;whiteSpace=wrap;html=1;fillColor=#d5e8d4;strokeColor=#82b366;" vertex="1" parent="4uYYf8xD5izp8TEkNXEM-7">
          <mxGeometry width="280" height="160" as="geometry" />
        </mxCell>
        <mxCell id="4uYYf8xD5izp8TEkNXEM-23" style="edgeStyle=orthogonalEdgeStyle;rounded=0;orthogonalLoop=1;jettySize=auto;html=1;exitX=1;exitY=0.25;exitDx=0;exitDy=0;entryX=0;entryY=0.25;entryDx=0;entryDy=0;startArrow=none;startFill=0;endArrow=classic;endFill=1;fillColor=#dae8fc;strokeColor=#6c8ebf;" edge="1" parent="4uYYf8xD5izp8TEkNXEM-7" source="4uYYf8xD5izp8TEkNXEM-3" target="4uYYf8xD5izp8TEkNXEM-10">
          <mxGeometry relative="1" as="geometry" />
        </mxCell>
        <mxCell id="4uYYf8xD5izp8TEkNXEM-30" style="edgeStyle=orthogonalEdgeStyle;rounded=0;orthogonalLoop=1;jettySize=auto;html=1;exitX=0.5;exitY=1;exitDx=0;exitDy=0;entryX=0.5;entryY=0;entryDx=0;entryDy=0;startArrow=none;startFill=0;endArrow=classic;endFill=1;fillColor=#dae8fc;strokeColor=#6c8ebf;" edge="1" parent="4uYYf8xD5izp8TEkNXEM-7" source="4uYYf8xD5izp8TEkNXEM-3" target="4uYYf8xD5izp8TEkNXEM-22">
          <mxGeometry relative="1" as="geometry" />
        </mxCell>
        <mxCell id="4uYYf8xD5izp8TEkNXEM-3" value="BMS" style="rounded=0;whiteSpace=wrap;html=1;" vertex="1" parent="4uYYf8xD5izp8TEkNXEM-7">
          <mxGeometry width="120" height="30" as="geometry" />
        </mxCell>
        <mxCell id="4uYYf8xD5izp8TEkNXEM-8" value="Relay1" style="rounded=0;whiteSpace=wrap;html=1;" vertex="1" parent="4uYYf8xD5izp8TEkNXEM-7">
          <mxGeometry x="180" y="60" width="100" height="30" as="geometry" />
        </mxCell>
        <mxCell id="4uYYf8xD5izp8TEkNXEM-10" value="Relay2" style="rounded=0;whiteSpace=wrap;html=1;" vertex="1" parent="4uYYf8xD5izp8TEkNXEM-7">
          <mxGeometry x="180" width="100" height="30" as="geometry" />
        </mxCell>
        <mxCell id="4uYYf8xD5izp8TEkNXEM-32" style="edgeStyle=orthogonalEdgeStyle;rounded=0;orthogonalLoop=1;jettySize=auto;html=1;exitX=1;exitY=0.5;exitDx=0;exitDy=0;entryX=0.5;entryY=1;entryDx=0;entryDy=0;startArrow=none;startFill=0;endArrow=classic;endFill=1;" edge="1" parent="4uYYf8xD5izp8TEkNXEM-7" source="4uYYf8xD5izp8TEkNXEM-9" target="4uYYf8xD5izp8TEkNXEM-8">
          <mxGeometry relative="1" as="geometry" />
        </mxCell>
        <mxCell id="4uYYf8xD5izp8TEkNXEM-9" value="EV1527 Module" style="rounded=0;whiteSpace=wrap;html=1;" vertex="1" parent="4uYYf8xD5izp8TEkNXEM-7">
          <mxGeometry y="130" width="120" height="30" as="geometry" />
        </mxCell>
        <mxCell id="4uYYf8xD5izp8TEkNXEM-24" style="edgeStyle=orthogonalEdgeStyle;rounded=0;orthogonalLoop=1;jettySize=auto;html=1;exitX=1;exitY=0.25;exitDx=0;exitDy=0;entryX=0;entryY=0.75;entryDx=0;entryDy=0;startArrow=none;startFill=0;endArrow=classic;endFill=1;fillColor=#ffe6cc;strokeColor=#d79b00;" edge="1" parent="4uYYf8xD5izp8TEkNXEM-7" source="4uYYf8xD5izp8TEkNXEM-22" target="4uYYf8xD5izp8TEkNXEM-10">
          <mxGeometry relative="1" as="geometry" />
        </mxCell>
        <mxCell id="4uYYf8xD5izp8TEkNXEM-25" style="edgeStyle=orthogonalEdgeStyle;rounded=0;orthogonalLoop=1;jettySize=auto;html=1;exitX=1;exitY=0.5;exitDx=0;exitDy=0;entryX=0;entryY=0.5;entryDx=0;entryDy=0;startArrow=none;startFill=0;endArrow=classic;endFill=1;fillColor=#ffe6cc;strokeColor=#d79b00;" edge="1" parent="4uYYf8xD5izp8TEkNXEM-7" source="4uYYf8xD5izp8TEkNXEM-22" target="4uYYf8xD5izp8TEkNXEM-8">
          <mxGeometry relative="1" as="geometry" />
        </mxCell>
        <mxCell id="4uYYf8xD5izp8TEkNXEM-31" style="edgeStyle=orthogonalEdgeStyle;rounded=0;orthogonalLoop=1;jettySize=auto;html=1;exitX=0.5;exitY=1;exitDx=0;exitDy=0;entryX=0.5;entryY=0;entryDx=0;entryDy=0;startArrow=none;startFill=0;endArrow=classic;endFill=1;fillColor=#ffe6cc;strokeColor=#d79b00;" edge="1" parent="4uYYf8xD5izp8TEkNXEM-7" source="4uYYf8xD5izp8TEkNXEM-22" target="4uYYf8xD5izp8TEkNXEM-9">
          <mxGeometry relative="1" as="geometry" />
        </mxCell>
        <mxCell id="4uYYf8xD5izp8TEkNXEM-22" value="Regulator" style="rounded=0;whiteSpace=wrap;html=1;" vertex="1" parent="4uYYf8xD5izp8TEkNXEM-7">
          <mxGeometry y="60" width="120" height="30" as="geometry" />
        </mxCell>
        <mxCell id="4uYYf8xD5izp8TEkNXEM-11" value="Antenna" style="rounded=0;whiteSpace=wrap;html=1;" vertex="1" parent="1">
          <mxGeometry x="240" y="600" width="120" height="60" as="geometry" />
        </mxCell>
        <mxCell id="4uYYf8xD5izp8TEkNXEM-13" style="edgeStyle=orthogonalEdgeStyle;rounded=0;orthogonalLoop=1;jettySize=auto;html=1;exitX=0.5;exitY=1;exitDx=0;exitDy=0;entryX=0.5;entryY=0;entryDx=0;entryDy=0;endArrow=none;endFill=0;startArrow=classic;startFill=1;" edge="1" parent="1" source="4uYYf8xD5izp8TEkNXEM-9" target="4uYYf8xD5izp8TEkNXEM-11">
          <mxGeometry relative="1" as="geometry" />
        </mxCell>
        <mxCell id="4uYYf8xD5izp8TEkNXEM-18" style="edgeStyle=orthogonalEdgeStyle;rounded=0;orthogonalLoop=1;jettySize=auto;html=1;exitX=0;exitY=0.5;exitDx=0;exitDy=0;entryX=1;entryY=0.75;entryDx=0;entryDy=0;startArrow=none;startFill=0;endArrow=classic;endFill=1;" edge="1" parent="1" source="4uYYf8xD5izp8TEkNXEM-14" target="4uYYf8xD5izp8TEkNXEM-10">
          <mxGeometry relative="1" as="geometry" />
        </mxCell>
        <mxCell id="4uYYf8xD5izp8TEkNXEM-14" value="Motion Sensor" style="rounded=0;whiteSpace=wrap;html=1;" vertex="1" parent="1">
          <mxGeometry x="640" y="420" width="120" height="60" as="geometry" />
        </mxCell>
        <mxCell id="4uYYf8xD5izp8TEkNXEM-17" style="edgeStyle=orthogonalEdgeStyle;rounded=0;orthogonalLoop=1;jettySize=auto;html=1;exitX=0;exitY=0.5;exitDx=0;exitDy=0;entryX=0.5;entryY=0;entryDx=0;entryDy=0;startArrow=classic;startFill=1;endArrow=classic;endFill=1;" edge="1" parent="1" source="4uYYf8xD5izp8TEkNXEM-3" target="4uYYf8xD5izp8TEkNXEM-4">
          <mxGeometry relative="1" as="geometry" />
        </mxCell>
        <mxCell id="4uYYf8xD5izp8TEkNXEM-19" style="edgeStyle=orthogonalEdgeStyle;rounded=0;orthogonalLoop=1;jettySize=auto;html=1;exitX=1;exitY=0.25;exitDx=0;exitDy=0;entryX=0;entryY=0.5;entryDx=0;entryDy=0;startArrow=none;startFill=0;endArrow=classic;endFill=1;" edge="1" parent="1" source="4uYYf8xD5izp8TEkNXEM-10" target="4uYYf8xD5izp8TEkNXEM-1">
          <mxGeometry relative="1" as="geometry" />
        </mxCell>
        <mxCell id="4uYYf8xD5izp8TEkNXEM-20" style="edgeStyle=orthogonalEdgeStyle;rounded=0;orthogonalLoop=1;jettySize=auto;html=1;exitX=1;exitY=0.5;exitDx=0;exitDy=0;entryX=0;entryY=0.75;entryDx=0;entryDy=0;startArrow=none;startFill=0;endArrow=classic;endFill=1;" edge="1" parent="1" source="4uYYf8xD5izp8TEkNXEM-8" target="4uYYf8xD5izp8TEkNXEM-14">
          <mxGeometry relative="1" as="geometry" />
        </mxCell>
        <mxCell id="4uYYf8xD5izp8TEkNXEM-21" value="Relay1 is enabled by EV1527 and supplies power to the motion sensor.&lt;br&gt;&lt;br&gt;Once tripped the motion sensor activates Relay2 and supplies power to the Siren" style="text;html=1;strokeColor=none;fillColor=none;align=left;verticalAlign=middle;whiteSpace=wrap;rounded=0;" vertex="1" parent="1">
          <mxGeometry x="560" y="530" width="170" height="100" as="geometry" />
        </mxCell>
        <mxCell id="4uYYf8xD5izp8TEkNXEM-26" style="edgeStyle=orthogonalEdgeStyle;rounded=0;orthogonalLoop=1;jettySize=auto;html=1;exitX=1;exitY=0.25;exitDx=0;exitDy=0;entryX=0;entryY=0.25;entryDx=0;entryDy=0;startArrow=none;startFill=0;endArrow=classic;endFill=1;fillColor=#dae8fc;strokeColor=#6c8ebf;" edge="1" parent="1">
          <mxGeometry relative="1" as="geometry">
            <mxPoint x="425" y="320" as="sourcePoint" />
            <mxPoint x="485" y="320" as="targetPoint" />
          </mxGeometry>
        </mxCell>
        <mxCell id="4uYYf8xD5izp8TEkNXEM-27" style="edgeStyle=orthogonalEdgeStyle;rounded=0;orthogonalLoop=1;jettySize=auto;html=1;exitX=1;exitY=0.5;exitDx=0;exitDy=0;entryX=0;entryY=0.5;entryDx=0;entryDy=0;startArrow=none;startFill=0;endArrow=classic;endFill=1;fillColor=#ffe6cc;strokeColor=#d79b00;" edge="1" parent="1">
          <mxGeometry relative="1" as="geometry">
            <mxPoint x="425" y="339.52" as="sourcePoint" />
            <mxPoint x="485" y="339.52" as="targetPoint" />
          </mxGeometry>
        </mxCell>
        <mxCell id="4uYYf8xD5izp8TEkNXEM-28" value="12V" style="text;html=1;strokeColor=none;fillColor=none;align=center;verticalAlign=middle;whiteSpace=wrap;rounded=0;" vertex="1" parent="1">
          <mxGeometry x="385" y="310" width="40" height="20" as="geometry" />
        </mxCell>
        <mxCell id="4uYYf8xD5izp8TEkNXEM-29" value="3.3V" style="text;html=1;strokeColor=none;fillColor=none;align=center;verticalAlign=middle;whiteSpace=wrap;rounded=0;" vertex="1" parent="1">
          <mxGeometry x="385" y="330" width="40" height="20" as="geometry" />
        </mxCell>
      </root>
    </mxGraphModel>
  </diagram>
</mxfile>
